<?xml version="1.0" encoding="UTF-8" standalone="no"?>
<!DOCTYPE svg PUBLIC "-//W3C//DTD SVG 1.1//EN" "http://www.w3.org/Graphics/SVG/1.1/DTD/svg11.dtd">
<svg xmlns="http://www.w3.org/2000/svg" version="1.1" viewBox="0.00 0.00 831.00 148.00">
<circle fill="#00ff00" cx="453.67" cy="19.94" r="8.64"/>
<rect fill="#ffa11b" x="-7.07" y="-51.25" transform="translate(742.07,67.48) rotate(-0.1)" width="14.14" height="102.50" rx="0.82"/>
<path fill="#ffa11b" d="
  M 505.01 40.71
  L 505.00 21.98
  A 0.27 0.26 -0.0 0 1 505.27 21.72
  L 517.75 21.69
  A 0.77 0.77 0.0 0 1 518.52 22.45
  L 518.63 40.99
  A 0.62 0.61 89.5 0 0 519.24 41.60
  L 535.40 41.53
  Q 536.03 41.53 536.03 42.15
  L 536.04 53.98
  A 0.77 0.77 0.0 0 1 535.26 54.75
  L 519.25 54.67
  A 0.41 0.40 -90.0 0 0 518.85 55.08
  Q 519.00 75.43 518.95 92.88
  C 518.94 94.94 519.70 98.42 520.80 100.18
  Q 526.06 108.63 536.36 106.54
  A 0.53 0.52 -5.5 0 1 536.99 107.05
  L 537.03 118.96
  A 0.79 0.79 0.0 0 1 536.29 119.75
  C 525.83 120.42 513.74 118.25 508.53 107.91
  Q 505.14 101.20 505.08 94.87
  Q 504.92 76.67 505.05 55.44
  Q 505.06 54.81 504.43 54.81
  L 493.21 54.69
  Q 492.49 54.68 492.49 53.96
  L 492.52 42.25
  A 0.74 0.74 0.0 0 1 493.26 41.51
  L 504.29 41.44
  Q 505.01 41.43 505.01 40.71
  Z"
/>
<path fill="#ffa11b" d="
  M 326.21 50.54
  C 339.74 62.27 342.33 83.48 334.84 98.79
  C 326.70 115.42 309.80 123.02 291.63 120.83
  C 275.12 118.84 261.17 106.90 257.54 90.82
  Q 255.35 81.10 257.27 70.82
  C 260.35 54.37 273.87 42.65 290.15 40.29
  Q 310.92 37.27 326.21 50.54
  Z
  M 297.7339 107.9296
  A 27.49 27.09 89.7 0 0 324.6796 80.2982
  A 27.49 27.09 89.7 0 0 297.4461 52.9504
  A 27.49 27.09 89.7 0 0 270.5004 80.5818
  A 27.49 27.09 89.7 0 0 297.7339 107.9296
  Z"
/>
<path fill="#ffa11b" d="
  M 549.35 65.83
  C 550.24 63.78 550.89 61.69 552.05 59.76
  Q 562.57 42.37 582.38 40.11
  Q 588.73 39.39 595.68 40.42
  Q 600.42 41.12 605.58 43.31
  C 619.01 49.00 627.67 61.09 629.29 75.48
  C 629.97 81.48 629.38 88.24 627.42 93.89
  C 621.07 112.11 605.52 121.61 586.44 121.21
  C 573.07 120.93 561.48 115.07 553.69 104.04
  C 546.61 94.01 545.50 80.46 548.38 68.70
  Q 548.74 67.21 549.35 65.83
  Z
  M 587.4888 107.9130
  A 27.38 27.20 91.3 0 0 615.3030 81.1571
  A 27.38 27.20 91.3 0 0 588.7312 53.1670
  A 27.38 27.20 91.3 0 0 560.9170 79.9229
  A 27.38 27.20 91.3 0 0 587.4888 107.9130
  Z"
/>
<path fill="#ffa11b" d="
  M 717.18 58.60
  Q 718.18 60.10 718.98 61.78
  Q 723.35 70.89 723.05 81.33
  C 722.49 100.85 710.44 116.37 691.23 120.40
  Q 686.25 121.44 679.98 121.18
  Q 674.65 120.96 670.09 119.72
  C 648.76 113.93 637.98 94.39 641.29 73.01
  Q 643.18 60.82 650.59 52.69
  Q 657.10 45.56 666.98 42.21
  Q 679.03 38.13 691.33 40.82
  Q 707.74 44.41 717.18 58.60
  Z
  M 683.3986 107.9317
  A 27.46 27.00 86.6 0 0 708.7225 78.9187
  A 27.46 27.00 86.6 0 0 680.1414 53.1083
  A 27.46 27.00 86.6 0 0 654.8175 82.1213
  A 27.46 27.00 86.6 0 0 683.3986 107.9317
  Z"
/>
<path fill="#ffa11b" d="
  M 55.25 59.33
  C 53.00 53.64 47.19 51.75 41.58 53.53
  C 35.88 55.33 35.29 62.10 38.98 66.07
  C 41.83 69.13 46.81 70.75 50.64 72.08
  C 57.76 74.57 68.41 80.66 70.33 88.54
  Q 71.43 93.07 71.24 98.63
  Q 70.97 106.57 66.42 112.67
  C 60.35 120.81 50.02 121.50 40.83 120.96
  Q 36.46 120.71 32.47 118.82
  Q 20.68 113.23 19.47 100.63
  Q 19.37 99.53 20.41 99.17
  L 32.15 95.14
  A 1.12 1.11 -12.2 0 1 33.63 96.09
  C 33.92 99.17 34.01 101.56 36.37 103.89
  C 40.82 108.30 49.14 109.02 54.07 104.73
  C 58.60 100.78 58.23 93.18 53.20 89.63
  Q 47.76 85.80 40.73 83.39
  Q 35.79 81.70 31.32 78.75
  C 23.27 73.45 21.01 65.96 22.00 56.53
  Q 22.28 53.81 23.73 51.07
  C 28.80 41.46 37.58 39.66 47.73 39.95
  Q 53.91 40.13 59.49 42.58
  C 64.14 44.63 68.94 50.42 67.90 55.95
  Q 67.80 56.46 67.34 56.72
  Q 63.15 59.04 59.00 60.74
  C 57.45 61.38 55.89 60.94 55.25 59.33
  Z"
/>
<path fill="#ffa11b" d="
  M 185.71 50.28
  Q 185.73 51.52 186.37 50.46
  C 192.71 40.00 207.20 38.78 217.91 40.55
  C 231.07 42.71 239.97 51.37 242.84 64.46
  Q 244.28 71.02 244.26 79.20
  Q 244.21 99.14 244.18 117.74
  A 0.97 0.97 0.0 0 1 243.21 118.71
  L 231.00 118.70
  A 0.83 0.83 0.0 0 1 230.17 117.87
  Q 230.25 96.49 230.00 75.16
  Q 229.91 67.41 225.96 61.29
  C 222.21 55.49 214.96 52.92 208.20 53.14
  Q 194.84 53.59 189.04 64.70
  C 186.01 70.49 185.24 77.17 185.29 83.63
  Q 185.41 100.84 185.45 117.66
  Q 185.45 118.61 184.51 118.60
  L 171.95 118.48
  A 0.79 0.78 0.4 0 1 171.17 117.70
  L 171.05 43.10
  A 0.93 0.93 0.0 0 1 171.99 42.17
  L 184.54 42.24
  A 1.07 1.07 0.0 0 1 185.61 43.29
  L 185.71 50.28
  Z"
/>
<path fill="#ffa11b" d="
  M 415.98 49.05
  L 416.21 42.88
  Q 416.23 42.24 416.87 42.24
  L 429.78 42.22
  A 0.96 0.96 0.0 0 1 430.74 43.17
  Q 430.81 77.80 430.67 113.30
  C 430.66 114.94 430.33 116.46 430.20 118.07
  A 0.71 0.70 2.2 0 1 429.49 118.72
  L 417.30 118.58
  Q 416.03 118.56 416.02 117.30
  L 415.99 112.00
  Q 415.99 111.22 415.43 111.76
  Q 408.68 118.30 399.72 120.07
  C 376.81 124.59 355.26 112.82 350.17 89.48
  C 347.34 76.53 350.52 61.28 359.96 51.82
  C 369.91 41.86 382.07 38.93 395.80 40.18
  Q 408.04 41.29 415.37 49.28
  Q 415.95 49.90 415.98 49.05
  Z
  M 372.02 100.26
  Q 378.79 106.53 387.96 107.35
  C 402.41 108.65 414.60 101.12 416.94 86.35
  C 418.43 76.94 416.72 67.04 409.44 60.16
  C 402.54 53.65 391.84 51.95 382.68 54.31
  C 362.49 59.53 357.30 86.61 372.02 100.26
  Z"
/>
<path fill="#ffa11b" d="
  M 781.04 55.33
  C 776.61 60.42 779.70 66.30 785.07 68.84
  Q 791.23 71.76 798.30 74.81
  Q 803.38 77.00 807.86 81.13
  Q 811.43 84.43 812.75 88.89
  Q 815.05 96.61 812.87 104.70
  C 808.59 120.63 789.37 123.47 775.83 119.03
  C 767.56 116.32 762.41 109.14 762.11 100.50
  A 1.91 1.90 80.5 0 1 763.45 98.61
  L 774.48 95.20
  Q 775.15 95.00 775.19 95.69
  Q 775.89 106.35 786.21 107.81
  C 791.76 108.60 798.24 106.15 799.41 99.93
  Q 800.76 92.73 794.24 88.49
  C 788.48 84.75 780.99 82.85 775.99 79.90
  Q 760.51 70.74 765.58 53.15
  Q 766.56 49.73 769.80 46.51
  C 775.43 40.90 785.22 39.45 792.75 40.43
  C 801.81 41.61 808.88 45.40 810.87 54.71
  A 1.18 1.17 -20.4 0 1 810.28 55.98
  Q 805.11 58.78 799.56 60.76
  Q 798.95 60.97 798.62 60.41
  C 797.75 58.92 797.17 57.18 795.96 55.94
  Q 792.27 52.17 785.56 53.16
  Q 782.53 53.61 781.04 55.33
  Z"
/>
<path fill="#ffa11b" d="
  M 100.02 94.28
  C 102.67 102.03 109.67 106.82 117.64 107.36
  C 136.17 108.62 142.42 95.53 142.47 79.74
  Q 142.54 61.68 142.43 42.94
  A 0.78 0.78 0.0 0 1 143.21 42.16
  L 156.03 42.22
  A 0.66 0.66 0.0 0 1 156.68 42.87
  Q 156.82 62.54 156.57 82.91
  C 156.44 93.44 152.82 104.19 145.27 111.65
  C 134.60 122.17 115.93 123.45 102.76 117.02
  C 88.68 110.14 83.95 97.94 83.84 82.53
  Q 83.68 61.49 83.61 42.77
  Q 83.61 42.17 84.21 42.17
  L 97.04 42.14
  A 0.86 0.86 0.0 0 1 97.91 43.00
  Q 97.83 61.78 97.99 82.46
  Q 98.03 88.47 100.02 94.28
  Z"
/>
<path fill="#ffa11b" d="
  M 446.53 117.90
  L 446.35 43.30
  A 0.80 0.80 0.0 0 1 447.15 42.50
  L 459.73 42.54
  A 0.80 0.80 0.0 0 1 460.53 43.34
  L 460.42 117.84
  A 0.80 0.80 0.0 0 1 459.63 118.63
  L 447.33 118.70
  A 0.80 0.80 0.0 0 1 446.53 117.90
  Z"
/>
<circle fill="#00ff00" cx="485.34" cy="110.73" r="9.27"/>
</svg>
